Simulation
nRows=15
nColumns=15
endheader
time  TH_x TH_y TH_z SC_y  SC_z  SC_x  AC_y  AC_z  AC_x  GH_y  GH_z  GH_yy  EL_x  PS_y
0.0  0.000000  0.000000  0.000000  -27.682995104352422  3.3803985398366363  2.6070208912110258  49.83129973891847  8.83016119490255  2.0415958363842175  -25.323529294510543  -4.892641324085197  61.41378287450781  20.823919996084282  120.000000
0.02949999999999999  0.000000  0.000000  0.000000  -28.020855887309402  3.3620551283368614  2.598612082882845  50.47992112508194  8.797531172834756  2.5174819895637164  -20.846983160005674  -4.486394007677574  56.37611828813613  20.766527868589137  120.000000
0.05899999999999998  0.000000  0.000000  0.000000  -28.325534414256055  3.33433566599168  2.498172810912117  51.103746860214116  8.705893644744389  2.9983651256977977  -16.355703144569354  -4.070943167148268  51.3621493581255  20.694597590343516  120.000000
0.08849999999999997  0.000000  0.000000  0.000000  -28.57056082372412  3.3010702310791067  2.3085859962041457  51.67434253733366  8.559560301944343  3.487650283376481  -11.87112823759479  -3.5886897134174136  46.376012171189835  20.57245279505399  120.000000
0.11799999999999997  0.000000  0.000000  0.000000  -28.748107603422767  3.2676117927232786  2.0344231096338063  52.170817889062675  8.365596225079841  3.982567656404345  -7.419118847487477  -2.9959674055485466  41.433864584626846  20.376168568553087  120.000000
0.14749999999999996  0.000000  0.000000  0.000000  -28.85711895833725  3.2391889285630833  1.6860566818474167  52.56929394309364  8.137611369669532  4.467659533298079  -3.030372957767963  -2.26430956796188  36.563866384308284  20.09441796294214  120.000000
0.17699999999999994  0.000000  0.000000  0.000000  -28.898842172209097  3.2230133242731807  1.282213804694902  52.84657488196706  7.894917079583373  4.918537364499914  1.2590472356511047  -1.3863086583097037  31.805849060648036  19.732494428123438  120.000000
0.20649999999999993  0.000000  0.000000  0.000000  -28.876331300195172  3.2258503555159  0.8489143240516296  52.98397223106618  7.6588912619229035  5.3099164994054115  5.405069980126513  -0.3780981393949399  27.206729032815392  19.305104488274864  120.000000
0.23599999999999993  0.000000  0.000000  0.000000  -28.797096168853567  3.254182144872268  0.4162363950148622  52.97545653541669  7.450376020624731  5.618892612431632  9.350548734967331  0.7265420671405672  22.810703393613064  18.830171992129024  120.000000
0.2654999999999999  0.000000  0.000000  0.000000  -28.673855751476964  3.3119343279204374  0.015254657933867526  52.828642088850934  7.289990020128892  5.827281666042268  13.026881797047592  1.8885589140803432  18.65327037118194  18.32446215262988  120.000000
0.29499999999999993  0.000000  0.000000  0.000000  -28.5216390766312  3.397713777926243  -0.32511175691851385  52.563848369938825  7.196927982443559  5.92904919661439  16.361291558256227  3.0735731114547784  14.7595362042902  17.805818357739323  120.000000
0.3244999999999999  0.000000  0.000000  0.000000  -28.355622975065383  3.507534373107227  -0.5830885374111405  52.214296005842236  7.184053823237571  5.93364734946839  19.28759667958538  4.256990182172056  11.146420831667886  17.297631701609024  120.000000
0.35399999999999987  0.000000  0.000000  0.000000  -28.190456952752236  3.6356149763704417  -0.7459396687524531  51.81700747379795  7.255483689055561  5.856344778216518  21.75163372563466  5.423959838142598  7.821603722011074  16.827972261320067  120.000000
0.3834999999999999  0.000000  0.000000  0.000000  -28.042816618709  3.775741563180274  -0.8088377158457245  51.40402333877838  7.406846974634631  5.713709309874004  23.71417075334371  6.56826914413316  4.782464410346199  16.422685644314285  120.000000
0.41299999999999987  0.000000  0.000000  0.000000  -27.93078705426294  3.921731596642968  -0.7750504199208155  51.000275078145165  7.630325600677445  5.524750398140746  25.154142660421723  7.691741458895494  2.0174282106208676  16.103439863927857  120.000000
